<?xml version="1.0" encoding="utf-8"?>
<!-- Generator: Adobe Illustrator 22.0.1, SVG Export Plug-In . SVG Version: 6.00 Build 0)  -->
<svg version="1.2" baseProfile="tiny" id="Capa_1" xmlns="http://www.w3.org/2000/svg" xmlns:xlink="http://www.w3.org/1999/xlink"
	 x="0px" y="0px" viewBox="0 0 210.2 38" xml:space="preserve">
<g>
	<g>
		<path fill="#FFFFFF" d="M27.7,20.6c-1.8,1.1-3.9,1.7-6.2,1.7s-4.4-0.6-6.2-1.7c-3.5-2.1-5.9-6-5.9-10.4c0-3.7,1.6-6.9,4.2-9.2H6.5
			C2.9,1,0,3.9,0,7.4v22.3h28.8v-9.9C28.4,20.1,28.1,20.4,27.7,20.6z"/>
		<path fill="#FFFFFF" d="M17.7,7.1c0,2.1,1.7,3.8,3.8,3.8s3.8-1.7,3.8-3.8s-1.7-3.8-3.8-3.8C19.4,3.3,17.7,5,17.7,7.1z"/>
	</g>
	<g>
		<path fill="#FFFFFF" d="M42.9,25.1h11.8v4.8H36.1v-3.5L47.8,6H36V1.2h18.5v3.4L42.9,25.1z"/>
		<path fill="#FFFFFF" d="M55.4,18.5c0-3.2,0.8-5.8,2.3-7.6s3.6-2.8,6.3-2.8c2.7,0,4.8,0.9,6.4,2.8c1.5,1.8,2.3,4.4,2.3,7.7V20
			c0,3.2-0.8,5.8-2.3,7.6s-3.6,2.7-6.4,2.7c-2.7,0-4.9-0.9-6.4-2.8c-1.5-1.8-2.3-4.4-2.3-7.6v-1.4H55.4z M61,19.9
			c0,3.8,1,5.7,3.1,5.7c1.9,0,2.9-1.6,3-4.8v-2.3c0-1.9-0.3-3.4-0.8-4.3c-0.5-0.9-1.3-1.4-2.3-1.4c-0.9,0-1.7,0.5-2.2,1.4
			S61,16.6,61,18.5C61,18.5,61,19.9,61,19.9z"/>
		<path fill="#FFFFFF" d="M79.7,8.6l0.2,2.1c1.3-1.7,2.9-2.5,5-2.5c3.7,0,5.6,2.6,5.7,7.7v14H85V16.3c0-1.2-0.2-2.1-0.5-2.6
			c-0.4-0.5-1-0.8-1.9-0.8c-1,0-1.8,0.5-2.4,1.6V30h-5.6V8.6H79.7z"/>
		<path fill="#FFFFFF" d="M103.1,29.9c-0.2-0.3-0.3-0.9-0.5-1.7c-1,1.4-2.4,2.1-4.1,2.1c-1.8,0-3.3-0.6-4.4-1.8
			c-1.2-1.2-1.8-2.7-1.8-4.6c0-2.2,0.7-4,2.1-5.2c1.4-1.2,3.5-1.8,6.2-1.9h1.7v-1.7c0-1-0.2-1.6-0.5-2s-0.8-0.6-1.4-0.6
			c-1.4,0-2.1,0.8-2.1,2.4h-5.6c0-2,0.7-3.6,2.2-4.9s3.3-1.9,5.6-1.9c2.3,0,4.2,0.6,5.4,1.8s1.9,3,1.9,5.2v10c0,1.8,0.3,3.3,0.8,4.3
			v0.3h-5.5V29.9z M99.8,25.9c0.6,0,1.1-0.1,1.6-0.4c0.4-0.2,0.8-0.5,1-0.9v-4.4H101c-0.9,0-1.7,0.3-2.2,0.9S98,22.5,98,23.5
			C98,25.1,98.6,25.9,99.8,25.9z"/>
		<path fill="#FFFFFF" d="M127.1,19.9c0,3.4-0.6,5.9-1.7,7.7c-1.2,1.8-2.9,2.7-5.1,2.7c-1.7,0-3.1-0.7-4.2-2.1v9.9h-5.6V8.6h5.2
			l0.2,2c1.1-1.6,2.5-2.3,4.4-2.3c2.3,0,4,0.8,5.1,2.5c1.2,1.7,1.7,4.2,1.8,7.6v1.5H127.1z M121.5,18.5c0-2.1-0.2-3.5-0.7-4.4
			s-1.2-1.3-2.3-1.3c-1.1,0-2,0.5-2.5,1.4v10c0.5,0.9,1.3,1.4,2.5,1.4c1.1,0,1.9-0.5,2.3-1.4s0.6-2.4,0.6-4.4L121.5,18.5L121.5,18.5
			z"/>
		<path fill="#FFFFFF" d="M139.5,14l-1.9-0.2c-1.5,0-2.6,0.7-3.1,2v14.1h-5.6V8.6h5.3l0.2,2.3c0.9-1.8,2.1-2.7,3.6-2.7
			c0.6,0,1.1,0.1,1.5,0.3V14z"/>
		<path fill="#FFFFFF" d="M139.4,18.5c0-3.2,0.8-5.8,2.3-7.6s3.6-2.8,6.3-2.8s4.8,0.9,6.4,2.8c1.5,1.8,2.3,4.4,2.3,7.7V20
			c0,3.2-0.8,5.8-2.3,7.6s-3.6,2.7-6.4,2.7c-2.7,0-4.9-0.9-6.4-2.8c-1.5-1.8-2.3-4.4-2.3-7.6L139.4,18.5L139.4,18.5z M145,19.9
			c0,3.8,1,5.7,3.1,5.7c1.9,0,2.9-1.6,3-4.8v-2.3c0-1.9-0.3-3.4-0.8-4.3c-0.5-0.9-1.3-1.4-2.3-1.4c-0.9,0-1.7,0.5-2.2,1.4
			s-0.8,2.4-0.8,4.3V19.9z"/>
		<path fill="#FFFFFF" d="M175.3,19.9c0,3.4-0.6,5.9-1.7,7.7c-1.2,1.8-2.9,2.7-5.1,2.7c-1.7,0-3.1-0.7-4.2-2.1v9.9h-5.6V8.6h5.2
			l0.2,2c1.1-1.6,2.5-2.3,4.4-2.3c2.3,0,4,0.8,5.1,2.5c1.2,1.7,1.7,4.2,1.8,7.6L175.3,19.9L175.3,19.9z M169.7,18.5
			c0-2.1-0.2-3.5-0.7-4.4s-1.2-1.3-2.3-1.3s-2,0.5-2.5,1.4v10c0.5,0.9,1.3,1.4,2.5,1.4c1.1,0,1.9-0.5,2.3-1.4
			c0.4-0.9,0.6-2.4,0.6-4.4L169.7,18.5L169.7,18.5z"/>
		<path fill="#FFFFFF" d="M177.1,3c0-0.9,0.3-1.6,0.8-2.1c0.6-0.6,1.3-0.8,2.2-0.8s1.7,0.3,2.2,0.8s0.8,1.3,0.8,2.1
			c0,0.9-0.3,1.6-0.8,2.1c-0.5,0.6-1.3,0.8-2.2,0.8s-1.7-0.3-2.2-0.8C177.4,4.6,177.1,3.9,177.1,3z M183,29.9h-5.6V8.6h5.6V29.9z"/>
		<path fill="#FFFFFF" d="M195.9,29.9c-0.2-0.3-0.3-0.9-0.5-1.7c-1,1.4-2.4,2.1-4.1,2.1c-1.8,0-3.3-0.6-4.4-1.8
			c-1.2-1.2-1.8-2.7-1.8-4.6c0-2.2,0.7-4,2.1-5.2c1.4-1.2,3.5-1.8,6.2-1.9h1.7v-1.7c0-1-0.2-1.6-0.5-2s-0.8-0.6-1.4-0.6
			c-1.4,0-2.1,0.8-2.1,2.4h-5.6c0-2,0.7-3.6,2.2-4.9s3.3-1.9,5.6-1.9s4.2,0.6,5.4,1.8c1.3,1.2,1.9,3,1.9,5.2v10
			c0,1.8,0.3,3.3,0.8,4.3v0.3h-5.5V29.9z M192.6,25.9c0.6,0,1.1-0.1,1.6-0.4c0.4-0.2,0.8-0.5,1-0.9v-4.4h-1.3
			c-0.9,0-1.7,0.3-2.2,0.9s-0.8,1.4-0.8,2.4C190.7,25.1,191.4,25.9,192.6,25.9z"/>
		<path fill="#FFFFFF" d="M203.7,27.1c0-0.9,0.3-1.6,0.9-2.2c0.6-0.6,1.4-0.9,2.3-0.9c0.9,0,1.7,0.3,2.3,0.9s0.9,1.3,0.9,2.2
			c0,0.9-0.3,1.7-0.9,2.2c-0.6,0.6-1.4,0.8-2.3,0.8c-0.9,0-1.7-0.3-2.3-0.8C204,28.7,203.7,28,203.7,27.1z"/>
	</g>
</g>
</svg>
